<svg width="124" height="127" viewBox="0 0 124 127" fill="none" xmlns="http://www.w3.org/2000/svg">
<path d="M28.5705 36.737C42.9235 16.4477 71.0066 11.6354 91.2959 25.9884L124 49.1239L95.4295 89.5109C81.0765 109.8 52.9934 114.612 32.7041 100.259L2.21951e-06 77.1239L28.5705 36.737Z" fill="#1D344E"/>
<path d="M20 17C20 13.134 23.134 10 27 10H36C39.866 10 43 13.134 43 17V108C43 111.866 39.866 115 36 115H27C23.134 115 20 111.866 20 108V17Z" fill="#8DFB84"/>
<rect x="55" y="10" width="23" height="105" rx="7" fill="#FBEF84"/>
<rect x="90" y="10" width="23" height="105" rx="7" fill="#FBA184"/>
</svg>
